<mxfile modified="2022-05-02T20:05:09.879Z" host="app.diagrams.net" agent="5.0 (Windows NT 10.0; Win64; x64) AppleWebKit/537.36 (KHTML, like Gecko) Chrome/100.0.4896.127 Safari/537.36 Edg/100.0.1185.50" etag="vBQgHA2rCerifXfEOLWt" compressed="false" version="17.5.0" type="google">
  <diagram id="xwoVYdPfYqbvnA3It_jo" name="ISO-25012">
    <mxGraphModel grid="1" page="1" gridSize="10" guides="1" tooltips="1" connect="1" arrows="1" fold="1" pageScale="1" pageWidth="827" pageHeight="1169" math="0" shadow="0">
      <root>
        <mxCell id="9MF5UEarD79xyhiFrXVk-0" />
        <mxCell id="9MF5UEarD79xyhiFrXVk-1" parent="9MF5UEarD79xyhiFrXVk-0" />
        <mxCell id="9MF5UEarD79xyhiFrXVk-2" value="&lt;font style=&quot;font-size: 12px ; font-weight: normal&quot;&gt;&lt;i&gt;Diagram: Delivery - Requirements - Qualities - ISO-25012 - Data Product Qualities&lt;/i&gt;&lt;/font&gt;" style="text;strokeColor=none;fillColor=none;html=1;fontSize=12;fontStyle=1;verticalAlign=middle;align=left;shadow=0;glass=0;comic=0;opacity=30;fontColor=#808080;" vertex="1" parent="9MF5UEarD79xyhiFrXVk-1">
          <mxGeometry x="120" y="480" width="520" height="20" as="geometry" />
        </mxCell>
        <mxCell id="9MF5UEarD79xyhiFrXVk-3" value="" style="rounded=0;whiteSpace=wrap;html=1;strokeColor=#666666;fillColor=#f5f5f5;opacity=30;container=1;collapsible=0;recursiveResize=0;fontColor=#333333;strokeWidth=3;" vertex="1" parent="9MF5UEarD79xyhiFrXVk-1">
          <mxGeometry x="250" y="210" width="200" height="220" as="geometry" />
        </mxCell>
        <mxCell id="9MF5UEarD79xyhiFrXVk-4" value="Availablility" style="rounded=0;whiteSpace=wrap;html=1;strokeWidth=2;fontFamily=Helvetica;fillColor=none;strokeColor=#6c8ebf;" vertex="1" parent="9MF5UEarD79xyhiFrXVk-3">
          <mxGeometry x="110" y="10" width="80" height="20" as="geometry" />
        </mxCell>
        <mxCell id="9MF5UEarD79xyhiFrXVk-5" value="Portability" style="rounded=0;whiteSpace=wrap;html=1;strokeWidth=2;fontFamily=Helvetica;fillColor=none;strokeColor=#6c8ebf;" vertex="1" parent="9MF5UEarD79xyhiFrXVk-3">
          <mxGeometry x="110" y="40" width="80" height="20" as="geometry" />
        </mxCell>
        <mxCell id="9MF5UEarD79xyhiFrXVk-6" value="Recoverability" style="rounded=0;whiteSpace=wrap;html=1;strokeWidth=2;fontFamily=Helvetica;fillColor=none;strokeColor=#6c8ebf;" vertex="1" parent="9MF5UEarD79xyhiFrXVk-3">
          <mxGeometry x="110" y="70" width="80" height="20" as="geometry" />
        </mxCell>
        <mxCell id="9MF5UEarD79xyhiFrXVk-7" value="" style="rounded=0;whiteSpace=wrap;html=1;strokeColor=#666666;fillColor=#f5f5f5;opacity=30;container=1;collapsible=0;recursiveResize=0;strokeWidth=3;fontColor=#333333;" vertex="1" parent="9MF5UEarD79xyhiFrXVk-1">
          <mxGeometry x="150" y="200" width="200" height="240" as="geometry" />
        </mxCell>
        <mxCell id="9MF5UEarD79xyhiFrXVk-8" value="Accuracy" style="rounded=0;whiteSpace=wrap;html=1;strokeWidth=2;fontFamily=Helvetica;fillColor=none;strokeColor=#d6b656;" vertex="1" parent="9MF5UEarD79xyhiFrXVk-7">
          <mxGeometry x="10" y="22.5" width="80" height="22.5" as="geometry" />
        </mxCell>
        <mxCell id="9MF5UEarD79xyhiFrXVk-9" value="Completeness" style="rounded=0;whiteSpace=wrap;html=1;strokeWidth=2;fontFamily=Helvetica;fillColor=none;strokeColor=#d6b656;" vertex="1" parent="9MF5UEarD79xyhiFrXVk-7">
          <mxGeometry x="10" y="56.25" width="80" height="22.5" as="geometry" />
        </mxCell>
        <mxCell id="9MF5UEarD79xyhiFrXVk-10" value="Cosistency" style="rounded=0;whiteSpace=wrap;html=1;strokeWidth=2;fontFamily=Helvetica;fillColor=none;strokeColor=#d6b656;" vertex="1" parent="9MF5UEarD79xyhiFrXVk-7">
          <mxGeometry x="10" y="90" width="80" height="22.5" as="geometry" />
        </mxCell>
        <mxCell id="9MF5UEarD79xyhiFrXVk-11" value="Credibility" style="rounded=0;whiteSpace=wrap;html=1;strokeWidth=2;fontFamily=Helvetica;fillColor=none;strokeColor=#d6b656;" vertex="1" parent="9MF5UEarD79xyhiFrXVk-7">
          <mxGeometry x="10" y="123.75" width="80" height="22.5" as="geometry" />
        </mxCell>
        <mxCell id="9MF5UEarD79xyhiFrXVk-12" value="Currentness" style="rounded=0;whiteSpace=wrap;html=1;strokeWidth=2;fontFamily=Helvetica;fillColor=none;strokeColor=#d6b656;" vertex="1" parent="9MF5UEarD79xyhiFrXVk-7">
          <mxGeometry x="10" y="157.5" width="80" height="22.5" as="geometry" />
        </mxCell>
        <mxCell id="9MF5UEarD79xyhiFrXVk-13" value="Compliance" style="rounded=0;whiteSpace=wrap;html=1;strokeWidth=1;fontFamily=Helvetica;fontColor=#000000;gradientColor=#A9C4EB;gradientDirection=east;fillColor=#FFE599;opacity=20;" vertex="1" parent="9MF5UEarD79xyhiFrXVk-7">
          <mxGeometry x="110" y="50" width="80" height="20" as="geometry" />
        </mxCell>
        <mxCell id="9MF5UEarD79xyhiFrXVk-14" value="Confidentiality" style="rounded=0;whiteSpace=wrap;html=1;strokeWidth=1;fontFamily=Helvetica;fontColor=#000000;gradientColor=#A9C4EB;gradientDirection=east;fillColor=#FFE599;opacity=20;" vertex="1" parent="9MF5UEarD79xyhiFrXVk-7">
          <mxGeometry x="110" y="80" width="80" height="20" as="geometry" />
        </mxCell>
        <mxCell id="9MF5UEarD79xyhiFrXVk-15" value="Efficiency" style="rounded=0;whiteSpace=wrap;html=1;strokeWidth=1;fontFamily=Helvetica;fontColor=#000000;gradientColor=#A9C4EB;gradientDirection=east;fillColor=#FFE599;opacity=20;" vertex="1" parent="9MF5UEarD79xyhiFrXVk-7">
          <mxGeometry x="110" y="110" width="80" height="20" as="geometry" />
        </mxCell>
        <mxCell id="9MF5UEarD79xyhiFrXVk-16" value="Precision" style="rounded=0;whiteSpace=wrap;html=1;strokeWidth=1;fontFamily=Helvetica;fontColor=#000000;gradientColor=#A9C4EB;gradientDirection=east;fillColor=#FFE599;opacity=20;" vertex="1" parent="9MF5UEarD79xyhiFrXVk-7">
          <mxGeometry x="110" y="140" width="80" height="20" as="geometry" />
        </mxCell>
        <mxCell id="9MF5UEarD79xyhiFrXVk-17" value="Traceability" style="rounded=0;whiteSpace=wrap;html=1;strokeWidth=1;fontFamily=Helvetica;fontColor=#000000;gradientColor=#A9C4EB;gradientDirection=east;fillColor=#FFE599;opacity=20;" vertex="1" parent="9MF5UEarD79xyhiFrXVk-7">
          <mxGeometry x="110" y="170" width="80" height="20" as="geometry" />
        </mxCell>
        <mxCell id="9MF5UEarD79xyhiFrXVk-18" value="&lt;font style=&quot;font-size: 11px&quot;&gt;Understanability&lt;/font&gt;" style="rounded=0;whiteSpace=wrap;html=1;strokeWidth=1;fontFamily=Helvetica;fontColor=#000000;gradientColor=#A9C4EB;gradientDirection=east;fillColor=#FFE599;opacity=20;" vertex="1" parent="9MF5UEarD79xyhiFrXVk-7">
          <mxGeometry x="110" y="200" width="80" height="20" as="geometry" />
        </mxCell>
        <mxCell id="9MF5UEarD79xyhiFrXVk-19" value="Accessibility" style="rounded=0;whiteSpace=wrap;html=1;strokeWidth=1;fontFamily=Helvetica;fontColor=#000000;gradientColor=#A9C4EB;gradientDirection=east;fillColor=#FFE599;opacity=20;" vertex="1" parent="9MF5UEarD79xyhiFrXVk-7">
          <mxGeometry x="110" y="20" width="80" height="20" as="geometry" />
        </mxCell>
        <mxCell id="9MF5UEarD79xyhiFrXVk-20" value="System Specific (see ISO-25010)" style="text;html=1;strokeColor=#666666;fillColor=#f5f5f5;align=center;verticalAlign=middle;whiteSpace=wrap;rounded=0;opacity=30;horizontal=0;fontStyle=1;fontColor=#333333;" vertex="1" parent="9MF5UEarD79xyhiFrXVk-1">
          <mxGeometry x="460" y="200" width="20" height="240" as="geometry" />
        </mxCell>
        <mxCell id="9MF5UEarD79xyhiFrXVk-21" value="Inherent" style="text;html=1;strokeColor=#666666;fillColor=#f5f5f5;align=center;verticalAlign=middle;whiteSpace=wrap;rounded=0;opacity=30;horizontal=0;fontStyle=1;fontColor=#333333;" vertex="1" parent="9MF5UEarD79xyhiFrXVk-1">
          <mxGeometry x="120" y="200" width="20" height="240" as="geometry" />
        </mxCell>
        <mxCell id="9MF5UEarD79xyhiFrXVk-22" value="&lt;font style=&quot;font-size: 11px&quot;&gt;At its essence,&amp;nbsp;&lt;i&gt;&lt;b&gt;IT&lt;/b&gt;&lt;/i&gt; is the discipline of automating the management of Information (hence &quot;&lt;i&gt;Information&lt;/i&gt; Technology&quot;) to assist decision making, and ultimately operations.&lt;br&gt;&lt;br&gt;The sum of the qualities of the Information is derived from a combination of the information entered (&lt;i&gt;Inherent&lt;/i&gt; data qualities), and qualities of the system in which they are stored (&lt;i&gt;System&lt;/i&gt; Specific qualities - a small subset of the qualities defined in ISO-25010).&lt;br&gt;&lt;br&gt;&lt;/font&gt;" style="shape=note;whiteSpace=wrap;html=1;size=14;verticalAlign=top;align=left;spacingTop=-6;strokeColor=#666666;strokeWidth=1;fillColor=none;opacity=30;fontColor=#333333;" vertex="1" parent="9MF5UEarD79xyhiFrXVk-1">
          <mxGeometry x="520" y="200" width="160" height="240" as="geometry" />
        </mxCell>
        <mxCell id="9MF5UEarD79xyhiFrXVk-23" value="Text" style="text;html=1;align=center;verticalAlign=middle;resizable=0;points=[];autosize=1;" vertex="1" parent="9MF5UEarD79xyhiFrXVk-22">
          <mxGeometry x="103.85964912280701" y="102" width="40" height="20" as="geometry" />
        </mxCell>
      </root>
    </mxGraphModel>
  </diagram>
</mxfile>
